<?xml version="1.0" encoding="UTF-8" standalone="no"?>
<!-- Generator: Adobe Illustrator 21.0.2, SVG Export Plug-In . SVG Version: 6.00 Build 0)  -->

<svg
   xmlns:dc="http://purl.org/dc/elements/1.1/"
   xmlns:cc="http://creativecommons.org/ns#"
   xmlns:rdf="http://www.w3.org/1999/02/22-rdf-syntax-ns#"
   xmlns:svg="http://www.w3.org/2000/svg"
   xmlns="http://www.w3.org/2000/svg"
   xmlns:sodipodi="http://sodipodi.sourceforge.net/DTD/sodipodi-0.dtd"
   xmlns:inkscape="http://www.inkscape.org/namespaces/inkscape"
   version="1.1"
   id="Layer_1"
   x="0px"
   y="0px"
   viewBox="0 0 90 62"
   xml:space="preserve"
   inkscape:version="0.91 r13725"
   sodipodi:docname="mail.svg"
   width="90"
   height="62"
   inkscape:export-filename="/home/wojciech/workspace/_private/statix/woid.ovh/static/images/mail.png"
   inkscape:export-xdpi="31.935484"
   inkscape:export-ydpi="31.935484"><metadata
     id="metadata4834"><rdf:RDF><cc:Work
         rdf:about=""><dc:format>image/svg+xml</dc:format><dc:type
           rdf:resource="http://purl.org/dc/dcmitype/StillImage" /><dc:title></dc:title></cc:Work></rdf:RDF></metadata><defs
     id="defs4832" /><sodipodi:namedview
     pagecolor="#ffffff"
     bordercolor="#666666"
     borderopacity="1"
     objecttolerance="10"
     gridtolerance="10"
     guidetolerance="10"
     inkscape:pageopacity="0"
     inkscape:pageshadow="2"
     inkscape:window-width="1920"
     inkscape:window-height="1043"
     id="namedview4830"
     showgrid="false"
     fit-margin-top="0"
     fit-margin-left="0"
     fit-margin-right="0"
     fit-margin-bottom="0"
     inkscape:zoom="2.36"
     inkscape:cx="-57.966102"
     inkscape:cy="31"
     inkscape:window-x="0"
     inkscape:window-y="37"
     inkscape:window-maximized="0"
     inkscape:current-layer="Layer_1" /><path
     d="M 81,0 9,0 C 4,0 0,4 0,9 l 0,44 c 0,5 4,9 9,9 l 72,0 c 5,0 9,-4 9,-9 L 90,9 C 90,4 86,0 81,0 Z M 9,6 81,6 c 0.1,0 0.2,0 0.4,0 L 45,30.6 8.6,6 C 8.8,6 8.9,6 9,6 Z m 75,47 c 0,1.6 -1.3,3 -3,3 L 9,56 C 7.3,56 6,54.6 6,53 L 6,9.1 43.9,34.7 c 0.3,0.2 0.7,0.3 1.1,0.3 0.4,0 0.8,-0.1 1.1,-0.3 L 84,9.1 84,53 Z"
     id="path4828"
     style="fill:#b9b9b9;fill-opacity:1"
     inkscape:connector-curvature="0" /></svg>